<?xml version="1.0" encoding="UTF-8" standalone="no"?><!DOCTYPE svg PUBLIC "-//W3C//DTD SVG 1.1//EN" "http://www.w3.org/Graphics/SVG/1.1/DTD/svg11.dtd"><svg width="100%" height="100%" viewBox="0 0 405 406" version="1.1" xmlns="http://www.w3.org/2000/svg" xmlns:xlink="http://www.w3.org/1999/xlink" xml:space="preserve" xmlns:serif="http://www.serif.com/" style="fill-rule:evenodd;clip-rule:evenodd;stroke-linejoin:round;stroke-miterlimit:2;"><g><path d="M211.264,201.126l-67.584,-0c-21.241,-0 -38.62,-17.379 -38.62,-39.102l0,-73.377l-47.792,-0c-10.62,-0 -19.309,8.689 -19.309,19.31l-0,146.754l173.305,-0l-0,-53.585Z" style="fill:none;fill-rule:nonzero;stroke:#939;stroke-width:8.33px;"/><path d="M399.534,331.949c-0.483,-5.31 -5.311,-9.172 -10.621,-8.689c-5.31,0.966 -9.172,5.793 -8.206,11.103c0.482,5.793 -0.966,11.586 -5.311,15.931c-3.862,4.344 -9.654,6.275 -15.93,5.793c-7.241,-0.483 -14,-5.793 -16.413,-13.034c-2.897,-9.173 0.482,-18.827 8.206,-23.655c9.655,-5.793 14.965,-16.896 13.517,-28.964l-2.414,-18.827l14.483,-1.931c5.31,-0.483 9.172,-5.793 8.206,-11.104c-0.482,-5.31 -5.31,-9.172 -10.62,-8.689l-14.482,1.931l-22.689,-183.442c10.62,-5.793 17.861,-16.896 17.861,-29.931c0,-18.827 -14.965,-34.274 -33.792,-34.274c-16.896,-0 -30.413,12.551 -33.309,28.482l-111.997,47.791l-16.896,7.241c-0.482,0 -0.482,0.483 -0.965,0.483l-0.966,0.483c-1.448,-0.966 -3.379,-1.448 -4.827,-1.448l-27.999,-0l-0,73.377c-0,10.62 8.689,19.309 19.31,19.309l68.066,0l-0.482,-0.482l-0,-8.207c-0,-1.931 -0.483,-3.862 -1.449,-5.31l0,-0.483l14.965,-12.551l92.687,-77.239c0.966,-0.966 1.448,-1.931 2.414,-2.897l22.689,181.029l-14.482,1.931c-5.311,0.483 -9.173,5.793 -8.207,11.103c0.483,4.828 4.827,8.689 9.655,8.689l1.448,0l14.482,-1.93l2.414,18.827c0.483,3.861 -1.448,7.723 -4.345,9.654c-15.93,9.655 -23.171,28.965 -16.896,46.826c4.828,14.483 18.345,24.62 32.827,26.069l3.379,-0c10.62,-0 20.758,-4.345 27.999,-12.069c6.759,-7.241 10.138,-18.827 8.69,-30.896Zm-185.857,-193.58l-14.965,12.552l-24.62,-37.654l30.896,11.586l17.379,6.758l-8.69,6.758Zm16.896,-24.62l-41.516,-15.93l41.516,-17.862l0,33.792Zm19.31,-5.792l0,-25.586l22.689,6.759l-22.689,18.827Zm40.551,-33.793l-27.034,-8.206l27.999,-12.069c1.931,4.828 5.31,8.69 8.689,11.586l-9.654,8.689Z" style="fill:none;fill-rule:nonzero;stroke:#939;stroke-width:8.33px;"/><path d="M235.401,303.95c1.448,0 3.379,0 4.827,0.483l0,-19.792c0,-5.311 -4.344,-9.655 -9.655,-9.655l-192.614,-0l-0,29.447c1.448,0 3.379,-0.483 4.827,-0.483l192.615,0Z" style="fill:none;fill-rule:nonzero;stroke:#939;stroke-width:8.33px;"/><path d="M235.401,323.26l-192.615,0c-21.241,0 -38.619,17.379 -38.619,39.102c-0,21.724 17.378,39.103 38.619,39.103l192.615,-0c21.24,-0 38.619,-17.379 38.619,-39.103c0,-21.723 -17.379,-39.102 -38.619,-39.102Zm-192.615,51.171c-6.758,-0 -12.068,-5.31 -12.068,-12.069c-0,-6.758 5.31,-12.068 12.068,-12.068c6.759,-0 12.069,5.31 12.069,12.068c-0,6.759 -5.31,12.069 -12.069,12.069Zm48.274,-0c-6.758,-0 -12.068,-5.31 -12.068,-12.069c-0,-6.758 5.31,-12.068 12.068,-12.068c6.759,-0 12.069,5.31 12.069,12.068c0,6.759 -5.793,12.069 -12.069,12.069Zm47.792,-0c-6.758,-0 -12.068,-5.31 -12.068,-12.069c-0,-6.758 5.31,-12.068 12.068,-12.068c6.759,-0 12.069,5.31 12.069,12.068c-0,6.759 -5.31,12.069 -12.069,12.069Zm48.274,-0c-6.758,-0 -12.068,-5.31 -12.068,-12.069c-0,-6.758 5.31,-12.068 12.068,-12.068c6.759,-0 12.069,5.31 12.069,12.068c0,6.759 -5.31,12.069 -12.069,12.069Zm48.275,-0c-6.759,-0 -12.069,-5.31 -12.069,-12.069c0,-6.758 5.31,-12.068 12.069,-12.068c6.758,-0 12.068,5.31 12.068,12.068c0,6.759 -5.31,12.069 -12.068,12.069Z" style="fill:none;fill-rule:nonzero;stroke:#939;stroke-width:8.33px;"/></g></svg>