<?xml version="1.0" encoding="UTF-8" standalone="no"?><!DOCTYPE svg PUBLIC "-//W3C//DTD SVG 1.1//EN" "http://www.w3.org/Graphics/SVG/1.1/DTD/svg11.dtd"><svg width="100%" height="100%" viewBox="0 0 445 311" version="1.1" xmlns="http://www.w3.org/2000/svg" xmlns:xlink="http://www.w3.org/1999/xlink" xml:space="preserve" xmlns:serif="http://www.serif.com/" style="fill-rule:evenodd;clip-rule:evenodd;stroke-linejoin:round;stroke-miterlimit:2;"><rect id="Artboard1" x="-942.888" y="-6373.11" width="5333.33" height="9226.67" style="fill:#fcf7e5;"/><g><g><path d="M427.105,4.167l-409.503,-0c-7.524,-0 -13.435,5.911 -13.435,13.435l-0,275.151c-0,7.524 5.911,13.435 13.435,13.435l185.942,0l37.618,-0.537l185.943,-0c7.523,-0 13.435,-5.911 13.435,-13.435l-0,-275.152c-0,-6.986 -5.912,-12.897 -13.435,-12.897Zm-310.621,229.472c0,2.687 -2.149,4.836 -4.836,4.836l-23.109,0c-2.687,0 -4.836,-2.149 -4.836,-4.836l-0,-32.782c-0,-2.687 2.149,-4.837 4.836,-4.837l23.109,0c2.687,0 4.836,2.15 4.836,4.837l0,32.782Zm12.361,-102.107l-31.707,42.992c-2.15,3.225 -6.987,3.762 -10.211,1.612c-1.612,-1.074 -2.687,-2.687 -2.687,-4.836c-0.537,-2.15 0,-3.762 1.612,-5.374l36.544,-48.904c1.075,-1.612 2.687,-2.687 4.836,-2.687l1.075,-0c1.612,-0 3.225,0.537 4.3,1.612l25.795,19.347l1.075,0.537l27.407,-37.081l-9.673,-6.986c-1.612,-1.075 -2.149,-2.687 -2.149,-4.837c0.537,-1.612 1.612,-3.224 3.224,-3.762l32.244,-11.285c1.612,-0.538 3.225,-0.538 4.837,0.537c1.612,1.075 2.15,2.687 2.15,4.299l-2.15,33.857c-0,2.15 -1.075,3.762 -2.687,4.299c-1.612,0.538 -3.762,0.538 -5.374,-0.537l-9.673,-6.987l-31.707,42.993c-1.075,1.612 -2.687,2.687 -4.837,2.687c-1.612,0.537 -3.762,-0 -5.374,-1.612l-25.796,-19.347l-1.074,-0.537Zm39.768,102.107c-0,2.687 -2.15,4.836 -4.837,4.836l-23.108,0c-2.687,0 -4.837,-2.149 -4.837,-4.836l-0,-55.89c-0,-2.687 2.15,-4.837 4.837,-4.837l23.108,-0c2.687,-0 4.837,2.15 4.837,4.837l-0,55.89Zm52.128,-0c-0,2.687 -2.15,4.836 -4.837,4.836l-23.108,0c-2.687,0 -4.837,-2.149 -4.837,-4.836l0,-78.999c0,-2.687 2.15,-4.837 4.837,-4.837l23.108,0c2.687,0 4.837,2.15 4.837,4.837l-0,78.999Zm90.284,-160.684c24.183,-0 45.142,17.196 49.441,41.38l-44.067,-0l-20.959,-38.693c5.912,-2.15 10.748,-2.687 15.585,-2.687Zm-31.169,11.285l23.645,43.53c1.613,3.224 4.837,4.837 8.061,4.837l49.442,-0c-4.3,24.183 -25.258,41.38 -49.442,41.38c-27.945,-0 -50.516,-22.571 -50.516,-50.516c-0.537,-15.585 6.449,-29.558 18.81,-39.231Zm81.148,149.399c-0,2.687 -2.15,4.836 -4.837,4.836l-90.821,0c-2.687,0 -4.837,-2.149 -4.837,-4.836l-0,-23.109c-0,-2.687 2.15,-4.836 4.837,-4.836l90.821,-0c2.687,-0 4.837,2.149 4.837,4.836l-0,23.109Z" style="fill:none;fill-rule:nonzero;stroke:#339898;stroke-width:8.33px;"/></g></g></svg>