<?xml version="1.0" encoding="UTF-8" standalone="no"?><!DOCTYPE svg PUBLIC "-//W3C//DTD SVG 1.1//EN" "http://www.w3.org/Graphics/SVG/1.1/DTD/svg11.dtd"><svg width="100%" height="100%" viewBox="0 0 448 424" version="1.1" xmlns="http://www.w3.org/2000/svg" xmlns:xlink="http://www.w3.org/1999/xlink" xml:space="preserve" xmlns:serif="http://www.serif.com/" style="fill-rule:evenodd;clip-rule:evenodd;stroke-linejoin:round;stroke-miterlimit:2;"><g><rect x="247.383" y="346.235" width="24.433" height="24.433" style="fill:none;stroke:#c84e00;stroke-width:8.33px;"/><rect x="271.816" y="101.901" width="24.433" height="24.433" style="fill:none;stroke:#c84e00;stroke-width:8.33px;"/><rect x="418.417" y="28.6" width="24.433" height="24.433" style="fill:none;stroke:#c84e00;stroke-width:8.33px;"/><rect x="345.116" y="4.167" width="24.433" height="24.433" style="fill:none;stroke:#c84e00;stroke-width:8.33px;"/><rect x="320.683" y="53.034" width="24.433" height="24.433" style="fill:none;stroke:#c84e00;stroke-width:8.33px;"/><rect x="369.55" y="53.034" width="24.433" height="24.433" style="fill:none;stroke:#c84e00;stroke-width:8.33px;"/><rect x="393.983" y="101.901" width="24.433" height="24.433" style="fill:none;stroke:#c84e00;stroke-width:8.33px;"/><rect x="345.116" y="101.901" width="24.433" height="24.433" style="fill:none;stroke:#c84e00;stroke-width:8.33px;"/><rect x="296.249" y="77.467" width="24.433" height="24.433" style="fill:none;stroke:#c84e00;stroke-width:8.33px;"/><rect x="247.383" y="77.467" width="24.433" height="24.433" style="fill:none;stroke:#c84e00;stroke-width:8.33px;"/><rect x="271.816" y="38.374" width="24.433" height="24.433" style="fill:none;stroke:#c84e00;stroke-width:8.33px;"/><rect x="369.55" y="126.334" width="24.433" height="24.433" style="fill:none;stroke:#c84e00;stroke-width:8.33px;"/><path d="M418.417,126.334l-0,25.044l-24.434,0l0,23.823l-24.433,0l-0,-23.823l-48.867,0l-0,-25.044l-24.434,0l0,25.044l-25.43,0l0,-24.878l-23.436,0l-0,-24.599l-24.434,-0l0,2.565l-2.697,-10.58c-4.447,-17.435 -25.968,-41.986 -46.874,-53.47c-17.176,-9.436 -23.324,-12.842 -52.527,-12.681c-27.912,0.157 -36.161,3.929 -52.874,12.417c-23.602,11.987 -42.059,31.588 -54.594,57.966c-7.389,15.55 -9.187,25.709 -9.216,52.088c-0.064,54.037 18.227,93.888 61.303,133.553c23.364,21.516 31.197,27.805 88.748,71.263c19.424,14.669 43.061,35.345 52.527,45.954c13.712,15.369 14.694,19.4 16.204,18.56l24.434,-0l-0,-24.434l24.433,0l0,-24.433l24.433,-0l0,-24.434l24.434,0l-0,-24.433l24.433,-0l0,-24.434l24.434,0l-0,-24.433l24.433,-0l0,-24.434l24.434,0l-0,-24.433l24.433,-0l0,-97.734l-24.433,0Z" style="fill:none;fill-rule:nonzero;stroke:#c84e00;stroke-width:8.33px;"/></g></svg>